<mxfile host="Electron" modified="2024-03-15T06:50:01.117Z" agent="Mozilla/5.0 (X11; Linux x86_64) AppleWebKit/537.36 (KHTML, like Gecko) draw.io/24.0.4 Chrome/120.0.6099.109 Electron/28.1.0 Safari/537.36" etag="Hc2YN36wFoul5fpG9u9X" version="24.0.4" type="device">
  <diagram name="Page-1" id="ijKU6omm411AxzlGt9A5">
    <mxGraphModel dx="399" dy="223" grid="1" gridSize="10" guides="1" tooltips="1" connect="1" arrows="1" fold="1" page="1" pageScale="1" pageWidth="850" pageHeight="1100" background="none" math="0" shadow="0">
      <root>
        <mxCell id="0" />
        <mxCell id="1" parent="0" />
        <mxCell id="vYJTW-IyGAqJvvr4b3gr-3" value="" style="rounded=0;whiteSpace=wrap;html=1;movable=1;resizable=1;rotatable=1;deletable=1;editable=1;locked=0;connectable=1;" parent="1" vertex="1">
          <mxGeometry x="210" y="40" width="190" height="200" as="geometry" />
        </mxCell>
        <mxCell id="vYJTW-IyGAqJvvr4b3gr-58" value="" style="endArrow=classic;html=1;rounded=0;exitX=1;exitY=0.5;exitDx=0;exitDy=0;edgeStyle=elbowEdgeStyle;strokeWidth=1;" parent="1" edge="1">
          <mxGeometry width="50" height="50" relative="1" as="geometry">
            <mxPoint x="353" y="209.9" as="sourcePoint" />
            <mxPoint x="420" y="150" as="targetPoint" />
          </mxGeometry>
        </mxCell>
        <mxCell id="vYJTW-IyGAqJvvr4b3gr-4" value="" style="endArrow=none;html=1;rounded=0;entryX=1.001;entryY=0.721;entryDx=0;entryDy=0;entryPerimeter=0;" parent="1" edge="1">
          <mxGeometry width="50" height="50" relative="1" as="geometry">
            <mxPoint x="400" y="180" as="sourcePoint" />
            <mxPoint x="210" y="180" as="targetPoint" />
          </mxGeometry>
        </mxCell>
        <mxCell id="vYJTW-IyGAqJvvr4b3gr-6" value="" style="endArrow=none;html=1;rounded=0;strokeWidth=1;" parent="1" edge="1">
          <mxGeometry width="50" height="50" relative="1" as="geometry">
            <mxPoint x="229" y="210" as="sourcePoint" />
            <mxPoint x="229" y="141.5" as="targetPoint" />
          </mxGeometry>
        </mxCell>
        <mxCell id="vYJTW-IyGAqJvvr4b3gr-36" value="" style="endArrow=classic;html=1;rounded=0;strokeWidth=1;entryX=0;entryY=0.5;entryDx=0;entryDy=0;" parent="1" edge="1">
          <mxGeometry width="50" height="50" relative="1" as="geometry">
            <mxPoint x="229" y="210" as="sourcePoint" />
            <mxPoint x="270" y="210" as="targetPoint" />
          </mxGeometry>
        </mxCell>
        <mxCell id="vYJTW-IyGAqJvvr4b3gr-55" value="ALU" style="rounded=0;whiteSpace=wrap;html=1;" parent="1" vertex="1">
          <mxGeometry x="273" y="190" width="80" height="40" as="geometry" />
        </mxCell>
        <mxCell id="KoD_33bqlST3TNC8V_lG-2" value="&lt;font style=&quot;font-size: 11px;&quot;&gt;CSR控制&lt;/font&gt;&lt;div&gt;&lt;span style=&quot;font-size: 11px;&quot;&gt;寄存器控制&lt;/span&gt;&lt;/div&gt;&lt;div&gt;&lt;span style=&quot;font-size: 11px;&quot;&gt;PC控制&lt;/span&gt;&lt;/div&gt;&lt;div&gt;&lt;span style=&quot;font-size: 11px;&quot;&gt;访存控制&lt;/span&gt;&lt;/div&gt;&lt;div&gt;&lt;span style=&quot;font-size: 11px;&quot;&gt;pc&lt;/span&gt;&lt;/div&gt;&lt;div&gt;&lt;span style=&quot;font-size: 11px;&quot;&gt;inst&lt;/span&gt;&lt;/div&gt;&lt;div&gt;&lt;div style=&quot;font-size: 11px;&quot;&gt;op1/op2&lt;/div&gt;&lt;/div&gt;&lt;div style=&quot;font-size: 11px;&quot;&gt;ALU控制&lt;br&gt;&lt;/div&gt;" style="text;html=1;align=right;verticalAlign=middle;whiteSpace=wrap;rounded=0;" parent="1" vertex="1">
          <mxGeometry x="110" y="41" width="60" height="130" as="geometry" />
        </mxCell>
        <mxCell id="KoD_33bqlST3TNC8V_lG-5" value="" style="endArrow=none;html=1;rounded=0;" parent="1" edge="1">
          <mxGeometry width="50" height="50" relative="1" as="geometry">
            <mxPoint x="169" y="142" as="sourcePoint" />
            <mxPoint x="229" y="142" as="targetPoint" />
          </mxGeometry>
        </mxCell>
        <mxCell id="KoD_33bqlST3TNC8V_lG-6" value="&lt;font style=&quot;font-size: 11px;&quot;&gt;CSR控制&lt;/font&gt;&lt;div&gt;&lt;span style=&quot;font-size: 11px;&quot;&gt;寄存器控制&lt;/span&gt;&lt;/div&gt;&lt;div&gt;&lt;span style=&quot;font-size: 11px;&quot;&gt;PC控制&lt;/span&gt;&lt;/div&gt;&lt;div&gt;&lt;span style=&quot;font-size: 11px;&quot;&gt;访存控制&lt;/span&gt;&lt;/div&gt;&lt;div style=&quot;&quot;&gt;&lt;br&gt;&lt;/div&gt;&lt;div&gt;&lt;br&gt;&lt;/div&gt;&lt;div&gt;&lt;span style=&quot;font-size: 11px;&quot;&gt;op1/op2&lt;/span&gt;&lt;/div&gt;&lt;div&gt;&lt;span style=&quot;font-size: 11px;&quot;&gt;aluOut&lt;/span&gt;&lt;/div&gt;" style="text;html=1;align=left;verticalAlign=middle;whiteSpace=wrap;rounded=0;" parent="1" vertex="1">
          <mxGeometry x="421" y="41" width="60" height="130" as="geometry" />
        </mxCell>
        <mxCell id="KoD_33bqlST3TNC8V_lG-12" value="" style="endArrow=none;html=1;rounded=0;" parent="1" edge="1">
          <mxGeometry width="50" height="50" relative="1" as="geometry">
            <mxPoint x="169" y="157" as="sourcePoint" />
            <mxPoint x="229" y="157" as="targetPoint" />
          </mxGeometry>
        </mxCell>
        <mxCell id="KoD_33bqlST3TNC8V_lG-15" value="&lt;font style=&quot;font-size: 70px;&quot;&gt;}&lt;/font&gt;" style="text;html=1;align=center;verticalAlign=middle;whiteSpace=wrap;rounded=0;" parent="1" vertex="1">
          <mxGeometry x="198" y="49" width="60" height="80" as="geometry" />
        </mxCell>
        <mxCell id="KoD_33bqlST3TNC8V_lG-16" value="&lt;font style=&quot;font-size: 70px;&quot;&gt;{&lt;/font&gt;" style="text;html=1;align=center;verticalAlign=middle;whiteSpace=wrap;rounded=0;" parent="1" vertex="1">
          <mxGeometry x="350" y="74" width="60" height="30" as="geometry" />
        </mxCell>
        <mxCell id="KoD_33bqlST3TNC8V_lG-18" value="" style="endArrow=classic;html=1;rounded=0;strokeWidth=3;" parent="1" edge="1">
          <mxGeometry width="50" height="50" relative="1" as="geometry">
            <mxPoint x="250" y="96" as="sourcePoint" />
            <mxPoint x="360" y="96" as="targetPoint" />
          </mxGeometry>
        </mxCell>
        <mxCell id="KoD_33bqlST3TNC8V_lG-19" value="" style="group" parent="1" vertex="1" connectable="0">
          <mxGeometry x="170" y="55.86" width="40" height="73.14" as="geometry" />
        </mxCell>
        <mxCell id="KoD_33bqlST3TNC8V_lG-4" value="" style="endArrow=none;html=1;rounded=0;" parent="KoD_33bqlST3TNC8V_lG-19" edge="1">
          <mxGeometry width="50" height="50" relative="1" as="geometry">
            <mxPoint as="sourcePoint" />
            <mxPoint x="40" as="targetPoint" />
          </mxGeometry>
        </mxCell>
        <mxCell id="KoD_33bqlST3TNC8V_lG-7" value="" style="endArrow=none;html=1;rounded=0;" parent="KoD_33bqlST3TNC8V_lG-19" edge="1">
          <mxGeometry width="50" height="50" relative="1" as="geometry">
            <mxPoint y="14.14" as="sourcePoint" />
            <mxPoint x="40" y="14.14" as="targetPoint" />
          </mxGeometry>
        </mxCell>
        <mxCell id="KoD_33bqlST3TNC8V_lG-8" value="" style="endArrow=none;html=1;rounded=0;" parent="KoD_33bqlST3TNC8V_lG-19" edge="1">
          <mxGeometry width="50" height="50" relative="1" as="geometry">
            <mxPoint y="29.14" as="sourcePoint" />
            <mxPoint x="40" y="29.14" as="targetPoint" />
          </mxGeometry>
        </mxCell>
        <mxCell id="KoD_33bqlST3TNC8V_lG-9" value="" style="endArrow=none;html=1;rounded=0;" parent="KoD_33bqlST3TNC8V_lG-19" edge="1">
          <mxGeometry width="50" height="50" relative="1" as="geometry">
            <mxPoint y="44.14" as="sourcePoint" />
            <mxPoint x="40" y="44.14" as="targetPoint" />
          </mxGeometry>
        </mxCell>
        <mxCell id="KoD_33bqlST3TNC8V_lG-10" value="" style="endArrow=none;html=1;rounded=0;" parent="KoD_33bqlST3TNC8V_lG-19" edge="1">
          <mxGeometry width="50" height="50" relative="1" as="geometry">
            <mxPoint y="59.14" as="sourcePoint" />
            <mxPoint x="40" y="59.14" as="targetPoint" />
          </mxGeometry>
        </mxCell>
        <mxCell id="KoD_33bqlST3TNC8V_lG-11" value="" style="endArrow=none;html=1;rounded=0;" parent="KoD_33bqlST3TNC8V_lG-19" edge="1">
          <mxGeometry width="50" height="50" relative="1" as="geometry">
            <mxPoint y="73.14" as="sourcePoint" />
            <mxPoint x="40" y="73.14" as="targetPoint" />
          </mxGeometry>
        </mxCell>
        <mxCell id="KoD_33bqlST3TNC8V_lG-21" value="" style="group" parent="1" vertex="1" connectable="0">
          <mxGeometry x="400" y="55" width="20" height="73.14" as="geometry" />
        </mxCell>
        <mxCell id="KoD_33bqlST3TNC8V_lG-22" value="" style="endArrow=none;html=1;rounded=0;" parent="KoD_33bqlST3TNC8V_lG-21" edge="1">
          <mxGeometry width="50" height="50" relative="1" as="geometry">
            <mxPoint as="sourcePoint" />
            <mxPoint x="20" as="targetPoint" />
          </mxGeometry>
        </mxCell>
        <mxCell id="KoD_33bqlST3TNC8V_lG-23" value="" style="endArrow=none;html=1;rounded=0;" parent="KoD_33bqlST3TNC8V_lG-21" edge="1">
          <mxGeometry width="50" height="50" relative="1" as="geometry">
            <mxPoint y="14.14" as="sourcePoint" />
            <mxPoint x="20" y="14.14" as="targetPoint" />
          </mxGeometry>
        </mxCell>
        <mxCell id="KoD_33bqlST3TNC8V_lG-24" value="" style="endArrow=none;html=1;rounded=0;" parent="KoD_33bqlST3TNC8V_lG-21" edge="1">
          <mxGeometry width="50" height="50" relative="1" as="geometry">
            <mxPoint y="29.14" as="sourcePoint" />
            <mxPoint x="20" y="29.14" as="targetPoint" />
          </mxGeometry>
        </mxCell>
        <mxCell id="KoD_33bqlST3TNC8V_lG-25" value="" style="endArrow=none;html=1;rounded=0;" parent="KoD_33bqlST3TNC8V_lG-21" edge="1">
          <mxGeometry width="50" height="50" relative="1" as="geometry">
            <mxPoint y="44.14" as="sourcePoint" />
            <mxPoint x="20" y="44.14" as="targetPoint" />
          </mxGeometry>
        </mxCell>
      </root>
    </mxGraphModel>
  </diagram>
</mxfile>
